<?xml version="1.0" encoding="utf-8"?>
<!-- Generator: Adobe Illustrator 19.1.0, SVG Export Plug-In . SVG Version: 6.00 Build 0)  -->
<svg version="1.1" id="Ebene_1" xmlns="http://www.w3.org/2000/svg" xmlns:xlink="http://www.w3.org/1999/xlink" x="0px" y="0px"
	 viewBox="0 0 1000 1000" style="enable-background:new 0 0 1000 1000;" xml:space="preserve">
<style type="text/css">
	.st0{fill:#AA9782;}
</style>
<rect x="0" y="0" width="1000" height="1000"/>
<g>
	<path class="st0" d="M289,200.1l6.4-6.4h181.5c116.1,0,216.9,38.1,216.9,159.7c0,50.8-24.5,103.4-82.6,122.5
		c67.1,22.7,99.8,79.8,99.8,143.4c0,130.7-105.3,186.9-216.9,186.9H295.4l-6.4-6.4V200.1z M477.8,431.5
		c53.5,0,103.4-13.6,103.4-70.8c0-60.8-49.9-70.8-103.4-70.8h-76.2v141.5H477.8z M483.2,710.1c56.3,0,113.4-20,113.4-90.7
		c0-65.3-56.3-91.6-113.4-91.6h-81.7v182.4H483.2z"/>
</g>
</svg>